<svg width="353" height="174" viewBox="0 0 353 174" fill="none" xmlns="http://www.w3.org/2000/svg">
<g clip-path="url(#clip0_0_17)">
<rect width="353" height="174" rx="8" fill="#095DD6"/>
<g style="mix-blend-mode:screen" opacity="0.14">
<g style="mix-blend-mode:color-burn">
<path d="M150.683 -62.0572C165.376 -75.2327 187.633 -75.2327 202.326 -62.0572C211.238 -54.0663 223.283 -50.5296 235.1 -52.4341C254.584 -55.5742 273.307 -43.5414 278.545 -24.5136C281.721 -12.9733 289.942 -3.48615 300.913 1.30049C319.001 9.19276 328.247 29.438 322.366 48.2769C318.799 59.7026 320.586 72.1281 327.227 82.0862C338.177 98.5051 335.01 120.535 319.878 133.204C310.7 140.887 305.485 152.306 305.688 164.274C306.024 184.007 291.449 200.827 271.869 203.303C259.994 204.805 249.434 211.592 243.134 221.77C232.748 238.551 211.393 244.822 193.583 236.32C182.781 231.163 170.228 231.163 159.426 236.32C141.616 244.822 120.261 238.551 109.875 221.77C103.576 211.592 93.015 204.805 81.1401 203.303C61.5607 200.827 46.9857 184.007 47.321 164.274C47.5243 152.306 42.3095 140.887 33.1317 133.204C17.9992 120.535 14.8318 98.5051 25.7821 82.0862C32.4234 72.1282 34.2099 59.7026 30.6431 48.2769C24.7621 29.438 34.0078 9.19276 52.0965 1.30049C63.0672 -3.48615 71.2879 -12.9733 74.4646 -24.5136C79.7022 -43.5414 98.4256 -55.5742 117.91 -52.4341C129.727 -50.5296 141.771 -54.0663 150.683 -62.0572Z" stroke="#095DD6" stroke-width="0.96494"/>
</g>
<g style="mix-blend-mode:color-burn">
<path d="M168.405 -64.0636C184.551 -75.4122 206.652 -72.7846 219.687 -57.9665C227.593 -48.9794 239.136 -44.0454 251.095 -44.5415C270.813 -45.3593 287.985 -31.2001 290.94 -11.6871C292.732 0.147509 299.775 10.5389 310.104 16.5873C327.134 26.5599 333.925 47.7551 325.861 65.7679C320.97 76.6926 321.277 89.2422 326.696 99.9147C335.632 117.512 329.886 139.013 313.363 149.807C303.343 156.353 296.816 167.077 295.605 178.985C293.608 198.619 277.149 213.601 257.415 213.749C245.445 213.838 234.157 219.331 226.701 228.694C214.406 244.131 192.46 247.837 175.778 237.291C165.661 230.896 153.195 229.414 141.86 233.259C123.171 239.599 102.705 230.851 94.373 212.961C89.3194 202.11 79.634 194.124 68.0194 191.231C48.8693 186.46 36.3821 168.037 39.0447 148.482C40.6595 136.622 36.8293 124.667 28.6228 115.954C15.0918 101.587 14.5474 79.337 27.3596 64.3258C35.1301 55.2215 38.3711 43.0937 36.1782 31.3268C32.5624 11.9254 44.1336 -7.0867 63.0276 -12.7882C74.4867 -16.2462 83.77 -24.6965 88.2869 -35.781C95.7343 -54.0573 115.747 -63.7954 134.724 -58.377C146.234 -55.0908 158.612 -57.1807 168.405 -64.0636Z" stroke="#095DD6" stroke-width="0.96494"/>
</g>
<g style="mix-blend-mode:color-burn">
<path d="M154.772 -41.3288C167.07 -52.356 185.697 -52.356 197.995 -41.3288C205.453 -34.6408 215.534 -31.6807 225.425 -33.2747C241.732 -35.9028 257.402 -25.8319 261.786 -9.90663C264.445 -0.247978 271.325 7.69233 280.507 11.6985C295.646 18.304 303.385 35.2482 298.462 51.0154C295.477 60.5782 296.972 70.9778 302.531 79.3121C311.696 93.0539 309.045 111.492 296.38 122.095C288.698 128.526 284.334 138.083 284.504 148.099C284.784 164.615 272.586 178.692 256.199 180.765C246.26 182.022 237.422 187.702 232.149 196.221C223.457 210.266 205.584 215.514 190.677 208.398C181.637 204.082 171.13 204.082 162.09 208.398C147.183 215.514 129.31 210.266 120.618 196.221C115.346 187.702 106.507 182.022 96.5682 180.765C80.1811 178.692 67.9826 164.615 68.2632 148.099C68.4334 138.083 64.0688 128.526 56.3874 122.095C43.7223 111.492 41.0713 93.0539 50.2362 79.3121C55.7946 70.9778 57.2899 60.5782 54.3046 51.0154C49.3825 35.2482 57.1207 18.304 72.2601 11.6985C81.442 7.69233 88.3224 -0.247978 90.981 -9.90663C95.3647 -25.8319 111.035 -35.9028 127.342 -33.2747C137.233 -31.6807 147.314 -34.6408 154.772 -41.3288Z" stroke="#095DD6" stroke-width="0.807607"/>
</g>
<g style="mix-blend-mode:color-burn">
<path d="M168.38 -42.9404C181.801 -52.5696 200.319 -50.5504 211.348 -38.2551C218.038 -30.798 227.739 -26.7627 237.743 -27.2751C254.239 -28.1201 268.726 -16.4099 271.357 -0.103262C272.953 9.78667 278.933 18.426 287.626 23.4039C301.96 31.6115 307.816 49.2947 301.214 64.4355C297.21 73.6183 297.569 84.1187 302.191 93.0065C309.812 107.661 305.178 125.703 291.438 134.871C283.105 140.431 277.73 149.458 276.814 159.434C275.302 175.883 261.65 188.555 245.135 188.839C235.118 189.011 225.716 193.7 219.552 201.597C209.388 214.617 191.051 217.897 177.004 209.207C168.484 203.937 158.04 202.798 148.585 206.108C132.995 211.566 115.796 204.412 108.677 189.507C104.359 180.467 96.1884 173.862 86.4445 171.535C70.3787 167.699 59.7781 152.381 61.8473 135.994C63.1022 126.055 59.7994 116.081 52.8603 108.856C41.4192 96.9421 40.7825 78.3254 51.3829 65.658C57.8121 57.9753 60.4258 47.7991 58.4948 37.9691C55.3108 21.7612 64.8401 5.75563 80.6063 0.830188C90.1684 -2.15707 97.8689 -9.30477 101.559 -18.6183C107.643 -33.9746 124.313 -42.2874 140.239 -37.9071C149.898 -35.2505 160.241 -37.1003 168.38 -42.9404Z" stroke="#095DD6" stroke-width="0.807607"/>
</g>
<g style="mix-blend-mode:color-burn">
<path d="M158.169 -21.7883C168.533 -31.0822 184.233 -31.0822 194.598 -21.7883C200.884 -16.1516 209.38 -13.6569 217.716 -15.0003C231.459 -17.2152 244.667 -8.72744 248.361 4.69455C250.602 12.8349 256.401 19.5271 264.139 22.9036C276.899 28.4707 283.421 42.7515 279.272 56.0402C276.756 64.0998 278.017 72.8647 282.701 79.889C290.426 91.4707 288.191 107.01 277.517 115.947C271.043 121.367 267.365 129.422 267.508 137.863C267.745 151.783 257.464 163.648 243.652 165.394C235.276 166.454 227.827 171.241 223.383 178.421C216.057 190.258 200.993 194.681 188.43 188.684C180.811 185.046 171.956 185.046 164.336 188.684C151.773 194.681 136.71 190.258 129.383 178.421C124.94 171.241 117.491 166.454 109.114 165.394C95.3029 163.648 85.0219 151.783 85.2584 137.863C85.4018 129.422 81.7233 121.367 75.2494 115.947C64.5751 107.01 62.3408 91.4707 70.0651 79.889C74.7498 72.8647 76.01 64.0998 73.494 56.0402C69.3456 42.7515 75.8674 28.4707 88.627 22.9036C96.3656 19.5271 102.164 12.8349 104.405 4.69455C108.1 -8.72744 121.307 -17.2152 135.051 -15.0003C143.387 -13.6569 151.883 -16.1516 158.169 -21.7883Z" stroke="#095DD6" stroke-width="0.680659"/>
</g>
<g style="mix-blend-mode:color-burn">
<path d="M171.191 -23.2296C182.62 -31.1785 198.2 -29.2482 207.344 -18.7505C212.889 -12.3837 221.014 -8.86322 229.452 -9.1715C243.363 -9.67981 255.427 0.367483 257.443 14.1419C258.666 22.496 263.598 29.8504 270.863 34.1527C282.841 41.2465 287.557 56.2208 281.807 68.8986C278.319 76.5877 278.492 85.441 282.277 92.988C288.519 105.432 284.391 120.579 272.699 128.135C265.608 132.718 260.967 140.259 260.071 148.655C258.594 162.497 246.932 173.008 233.011 173.043C224.568 173.065 216.587 176.9 211.294 183.479C202.568 194.325 187.075 196.863 175.345 189.366C168.23 184.82 159.442 183.731 151.433 186.404C138.228 190.811 123.823 184.569 118.007 171.921C114.481 164.25 107.676 158.583 99.4937 156.501C86.0022 153.07 77.258 140.031 79.2041 126.246C80.3844 117.886 77.7242 109.44 71.9658 103.265C62.4713 93.0841 62.1647 77.3875 71.2543 66.8434C76.7671 60.4485 79.0954 51.905 77.5895 43.5972C75.1065 29.8993 83.3347 16.5287 96.682 12.5727C104.777 10.1734 111.355 4.24497 114.579 -3.55815C119.896 -16.424 134.047 -23.2235 147.414 -19.3355C155.521 -16.9774 164.26 -18.4086 171.191 -23.2296Z" stroke="#095DD6" stroke-width="0.680659"/>
</g>
<g style="mix-blend-mode:color-burn">
<path d="M161.463 -2.25672C169.884 -9.80797 182.64 -9.80797 191.061 -2.25672C196.169 2.3231 203.072 4.35008 209.845 3.25858C221.012 1.4589 231.743 8.35525 234.744 19.2606C236.565 25.8747 241.277 31.3121 247.564 34.0554C257.931 38.5787 263.23 50.1819 259.86 60.979C257.816 67.5274 258.84 74.6488 262.646 80.3561C268.922 89.7662 267.106 102.392 258.434 109.653C253.174 114.057 250.185 120.601 250.301 127.46C250.493 138.77 242.14 148.41 230.919 149.829C224.113 150.69 218.06 154.58 214.45 160.413C208.497 170.031 196.258 173.625 186.05 168.752C179.86 165.796 172.665 165.796 166.474 168.752C156.267 173.625 144.027 170.031 138.075 160.413C134.465 154.58 128.412 150.69 121.606 149.829C110.385 148.41 102.031 138.77 102.223 127.46C102.34 120.601 99.3511 114.057 94.0911 109.653C85.4182 102.392 83.6029 89.7662 89.8788 80.3561C93.6851 74.6488 94.709 67.5274 92.6648 60.979C89.2942 50.1819 94.5932 38.5787 104.96 34.0554C111.248 31.3121 115.96 25.8747 117.78 19.2606C120.782 8.35524 131.513 1.4589 142.68 3.25858C149.452 4.35008 156.356 2.3231 161.463 -2.25672Z" stroke="#095DD6" stroke-width="0.553035"/>
</g>
<g style="mix-blend-mode:color-burn">
<path d="M171.394 -3.39588C180.63 -9.92464 193.301 -8.45228 200.794 0.0205238C205.339 5.15926 211.962 7.9695 218.815 7.66704C230.115 7.16834 239.978 15.2572 241.701 26.4362C242.746 33.2162 246.799 39.1611 252.728 42.6118C262.504 48.3015 266.428 60.4388 261.834 70.7746C259.047 77.0433 259.242 84.2354 262.364 90.3438C267.512 100.415 264.252 112.748 254.799 118.959C249.065 122.726 245.341 128.882 244.665 135.708C243.551 146.964 234.14 155.576 222.83 155.69C215.97 155.76 209.509 158.925 205.25 164.303C198.227 173.169 185.655 175.326 176.078 169.308C170.269 165.657 163.123 164.827 156.632 167.048C145.931 170.71 134.188 165.728 129.385 155.487C126.472 149.276 120.909 144.714 114.248 143.073C103.266 140.368 96.0809 129.828 97.5771 118.616C98.4846 111.817 96.2712 104.971 91.5546 99.9894C83.7778 91.7761 83.4319 79.0249 90.7521 70.4021C95.1917 65.1723 97.0308 58.2167 95.7561 51.4761C93.6543 40.3621 100.257 29.4481 111.077 26.1517C117.639 24.1524 122.947 19.2952 125.519 12.9355C129.759 2.44951 141.215 -3.16212 152.099 -0.0855264C158.701 1.78042 165.792 0.563801 171.394 -3.39588Z" stroke="#095DD6" stroke-width="0.553035"/>
</g>
<g style="mix-blend-mode:color-burn">
<path d="M164.173 13.3385C171.052 7.17031 181.471 7.17031 188.35 13.3385C192.522 17.0796 198.161 18.7353 203.693 17.8437C212.815 16.3737 221.581 22.0069 224.033 30.915C225.52 36.3177 229.368 40.7592 234.504 43.0001C242.973 46.695 247.301 56.173 244.548 64.9926C242.878 70.3417 243.715 76.1588 246.824 80.8208C251.95 88.5074 250.467 98.821 243.383 104.752C239.086 108.349 236.645 113.695 236.74 119.298C236.897 128.536 230.074 136.411 220.907 137.57C215.348 138.273 210.404 141.45 207.455 146.215C202.593 154.072 192.595 157.007 184.257 153.027C179.2 150.613 173.323 150.613 168.266 153.027C159.928 157.007 149.93 154.072 145.068 146.215C142.119 141.45 137.175 138.273 131.616 137.57C122.449 136.411 115.626 128.536 115.783 119.298C115.878 113.695 113.437 108.349 109.14 104.752C102.055 98.821 100.573 88.5074 105.699 80.8208C108.808 76.1588 109.645 70.3417 107.975 64.9926C105.222 56.173 109.55 46.695 118.018 43.0001C123.155 40.7592 127.003 36.3177 128.49 30.915C130.942 22.0069 139.708 16.3737 148.83 17.8437C154.362 18.7353 160.001 17.0796 164.173 13.3385Z" stroke="#095DD6" stroke-width="0.451747"/>
</g>
<g style="mix-blend-mode:color-burn">
<path d="M171.242 12.4756C178.707 7.03183 189.074 8.0817 195.296 14.9117C199.07 19.054 204.513 21.2695 210.107 20.9399C219.331 20.3964 227.484 26.8842 229.026 35.994C229.961 41.519 233.343 46.3257 238.227 49.0727C246.28 53.602 249.631 63.4679 246.004 71.9653C243.803 77.1189 244.049 82.9907 246.673 87.9422C250.999 96.1063 248.484 106.218 240.838 111.405C236.201 114.551 233.233 119.624 232.764 125.207C231.989 134.414 224.407 141.561 215.17 141.791C209.568 141.931 204.329 144.594 200.915 149.037C195.286 156.364 185.044 158.277 177.149 153.477C172.361 150.565 166.514 149.973 161.239 151.865C152.543 154.985 142.892 151.057 138.846 142.751C136.392 137.713 131.793 134.054 126.333 132.794C117.33 130.717 111.335 122.195 112.422 113.02C113.081 107.455 111.191 101.891 107.278 97.8788C100.828 91.2642 100.391 80.8537 106.266 73.7227C109.829 69.3977 111.248 63.6944 110.125 58.2043C108.275 49.1522 113.536 40.1585 122.334 37.3358C127.67 35.6237 131.946 31.5926 133.97 26.3672C137.307 17.7516 146.596 13.0302 155.523 15.4119C160.937 16.8563 166.714 15.7772 171.242 12.4756Z" stroke="#095DD6" stroke-width="0.451747"/>
</g>
<g style="mix-blend-mode:color-burn">
<path d="M167.094 29.5693C172.379 24.8302 180.385 24.8302 185.67 29.5693C188.875 32.4435 193.208 33.7157 197.458 33.0307C204.467 31.9012 211.201 36.2293 213.085 43.0734C214.228 47.2244 217.185 50.6369 221.131 52.3586C227.637 55.1974 230.963 62.4795 228.848 69.2557C227.565 73.3654 228.207 77.8348 230.596 81.4166C234.535 87.3224 233.395 95.2464 227.952 99.8033C224.651 102.567 222.775 106.674 222.849 110.979C222.969 118.077 217.727 124.127 210.684 125.018C206.413 125.558 202.614 127.999 200.348 131.66C196.613 137.696 188.931 139.951 182.525 136.893C178.64 135.039 174.124 135.039 170.239 136.893C163.833 139.951 156.152 137.696 152.416 131.66C150.15 127.999 146.352 125.558 142.08 125.018C135.038 124.127 129.795 118.077 129.916 110.979C129.989 106.674 128.113 102.567 124.812 99.8033C119.369 95.2464 118.23 87.3224 122.168 81.4166C124.557 77.8348 125.2 73.3654 123.917 69.2557C121.801 62.4795 125.127 55.1974 131.633 52.3586C135.58 50.6369 138.536 47.2244 139.679 43.0734C141.563 36.2293 148.298 31.9012 155.306 33.0307C159.556 33.7157 163.889 32.4435 167.094 29.5693Z" stroke="#095DD6" stroke-width="0.347082"/>
</g>
<g style="mix-blend-mode:color-burn">
<path d="M175.766 28.7762C181.741 24.9439 189.644 26.2249 194.102 31.7486C196.806 35.0988 200.879 37.0478 205.185 37.0517C212.283 37.0583 218.239 42.4083 219.003 49.4657C219.467 53.746 221.84 57.5877 225.459 59.9186C231.428 63.762 233.545 71.4824 230.373 77.8328C228.449 81.6843 228.368 86.1989 230.153 90.1168C233.096 96.5767 230.703 104.216 224.601 107.843C220.9 110.043 218.391 113.798 217.775 118.059C216.758 125.084 210.615 130.217 203.521 129.97C199.218 129.819 195.078 131.621 192.255 134.873C187.602 140.233 179.658 141.23 173.824 137.186C170.286 134.734 165.829 134.011 161.696 135.22C154.883 137.214 147.662 133.759 144.94 127.203C143.29 123.226 139.931 120.209 135.801 118.992C128.991 116.986 124.785 110.175 126.039 103.188C126.8 98.9501 125.606 94.5956 122.79 91.3393C118.146 85.9701 118.289 77.9659 123.122 72.7665C126.054 69.6131 127.403 65.3041 126.794 61.042C125.79 54.0147 130.238 47.3586 137.115 45.5975C141.286 44.5294 144.751 41.6341 146.543 37.7194C149.498 31.265 156.838 28.0703 163.576 30.3066C167.662 31.663 172.142 31.1005 175.766 28.7762Z" stroke="#095DD6" stroke-width="0.347082"/>
</g>
<g style="mix-blend-mode:color-burn">
<path d="M182.709 45.7661C187.281 43.8834 192.537 45.7446 194.905 50.0848C196.341 52.7171 198.89 54.5596 201.84 55.098C206.704 55.9858 210.119 60.3932 209.765 65.3247C209.55 68.3156 210.698 71.2435 212.889 73.2913C216.5 76.6678 216.991 82.222 214.026 86.179C212.229 88.579 211.611 91.6628 212.347 94.5698C213.56 99.3629 210.97 104.3 206.337 106.027C203.527 107.074 201.34 109.334 200.388 112.178C198.817 116.866 193.968 119.619 189.137 118.566C186.207 117.928 183.146 118.648 180.807 120.524C176.951 123.619 171.384 123.314 167.889 119.817C165.769 117.696 162.804 116.646 159.822 116.96C154.905 117.479 150.387 114.212 149.337 109.381C148.701 106.45 146.774 103.964 144.096 102.617C139.679 100.394 137.644 95.2034 139.373 90.5715C140.422 87.7623 140.145 84.6296 138.62 82.0476C136.106 77.7903 137.201 72.323 141.16 69.3613C143.561 67.5651 145.022 64.7801 145.135 61.7836C145.321 56.8429 149.198 52.8351 154.13 52.484C157.121 52.271 159.855 50.718 161.571 48.2584C164.399 44.2029 169.826 42.9271 174.165 45.298C176.797 46.7359 179.937 46.908 182.709 45.7661Z" stroke="#095DD6" stroke-width="0.241742"/>
</g>
<g style="mix-blend-mode:color-burn">
<path d="M173.876 45.3174C177.885 42.4233 183.43 43.0114 186.742 46.682C188.751 48.9082 191.658 50.1075 194.652 49.9453C199.589 49.6778 203.936 53.1703 204.738 58.049C205.224 61.0079 207.022 63.5886 209.628 65.071C213.926 67.5151 215.695 72.803 213.732 77.3409C212.541 80.0931 212.658 83.2358 214.049 85.8921C216.343 90.2718 214.972 95.6764 210.868 98.4326C208.378 100.104 206.777 102.811 206.512 105.798C206.074 110.723 201.998 114.528 197.055 114.628C194.057 114.688 191.247 116.1 189.409 118.469C186.378 122.375 180.892 123.373 176.68 120.784C174.125 119.214 170.998 118.883 168.17 119.882C163.509 121.529 158.354 119.403 156.21 114.948C154.91 112.246 152.458 110.276 149.54 109.588C144.727 108.454 141.541 103.878 142.146 98.9713C142.513 95.9952 141.515 93.0127 139.432 90.856C135.997 87.3 135.79 81.7281 138.951 77.927C140.869 75.6217 141.642 72.5734 141.056 69.6327C140.088 64.7841 142.927 59.9847 147.642 58.4965C150.501 57.5939 152.8 55.4476 153.896 52.6566C155.704 48.0547 160.686 45.5517 165.457 46.8488C168.351 47.6355 171.445 47.0727 173.876 45.3174Z" stroke="#095DD6" stroke-width="0.241742"/>
</g>
<g style="mix-blend-mode:color-burn">
<path d="M171.69 56.5813C174.292 54.2486 178.232 54.2486 180.834 56.5813C182.411 57.996 184.544 58.6222 186.636 58.285C190.086 57.7291 193.401 59.8594 194.328 63.2282C194.89 65.2714 196.346 66.951 198.288 67.7985C201.491 69.1958 203.128 72.7801 202.086 76.1155C201.455 78.1383 201.771 80.3382 202.947 82.1013C204.886 85.0082 204.325 88.9085 201.646 91.1514C200.021 92.5118 199.098 94.5335 199.134 96.6523C199.193 100.146 196.612 103.124 193.146 103.562C191.044 103.828 189.174 105.03 188.059 106.832C186.22 109.803 182.439 110.913 179.286 109.408C177.373 108.495 175.151 108.495 173.238 109.408C170.085 110.913 166.304 109.803 164.466 106.832C163.35 105.03 161.481 103.828 159.378 103.562C155.912 103.124 153.331 100.146 153.391 96.6523C153.427 94.5335 152.503 92.5118 150.878 91.1514C148.199 88.9085 147.639 85.0082 149.577 82.1013C150.753 80.3382 151.069 78.1383 150.438 76.1155C149.397 72.7801 151.034 69.1958 154.236 67.7985C156.178 66.951 157.634 65.2714 158.196 63.2282C159.124 59.8594 162.439 57.7291 165.888 58.285C167.98 58.6222 170.113 57.996 171.69 56.5813Z" stroke="#095DD6" stroke-width="0.17084"/>
</g>
<g style="mix-blend-mode:color-burn">
<path d="M176.146 56.1905C179.1 54.325 182.985 54.983 185.161 57.7174C186.48 59.3757 188.478 60.3492 190.597 60.3661C194.091 60.394 197.004 63.048 197.355 66.5244C197.569 68.6328 198.723 70.5319 200.497 71.6918C203.421 73.6043 204.436 77.4116 202.853 80.5263C201.892 82.4153 201.837 84.6371 202.702 86.5717C204.128 89.7616 202.924 93.5135 199.908 95.2775C198.078 96.3474 196.83 98.1865 196.512 100.282C195.987 103.736 192.946 106.241 189.455 106.095C187.337 106.006 185.293 106.878 183.893 108.469C181.584 111.091 177.671 111.554 174.813 109.544C173.08 108.324 170.889 107.953 168.851 108.534C165.49 109.491 161.948 107.765 160.631 104.529C159.832 102.566 158.19 101.069 156.161 100.456C152.817 99.4447 150.77 96.0776 151.412 92.643C151.801 90.5599 151.228 88.4124 149.853 86.7999C147.586 84.141 147.685 80.2018 150.082 77.6595C151.535 76.1176 152.215 74.0014 151.93 71.9014C151.46 68.4391 153.673 65.1784 157.063 64.3355C159.12 63.8243 160.836 62.4113 161.731 60.4907C163.208 57.3241 166.832 55.7772 170.14 56.9014C172.147 57.5832 174.354 57.3219 176.146 56.1905Z" stroke="#095DD6" stroke-width="0.17084"/>
</g>
<g style="mix-blend-mode:color-burn">
<path d="M173.675 67.4126C175.218 66.0295 177.554 66.0295 179.096 67.4126C180.032 68.2514 181.296 68.6226 182.536 68.4227C184.582 68.0931 186.547 69.3562 187.097 71.3535C187.43 72.5649 188.293 73.5607 189.445 74.0632C191.344 74.8916 192.314 77.0168 191.697 78.9943C191.322 80.1936 191.51 81.4979 192.207 82.5432C193.356 84.2667 193.024 86.5792 191.436 87.909C190.472 88.7155 189.925 89.9142 189.946 91.1704C189.981 93.2418 188.451 95.0074 186.396 95.2673C185.15 95.425 184.041 96.1374 183.38 97.2058C182.29 98.9673 180.048 99.6255 178.178 98.733C177.045 98.1917 175.727 98.1917 174.593 98.733C172.723 99.6255 170.482 98.9673 169.392 97.2058C168.73 96.1374 167.622 95.425 166.375 95.2673C164.32 95.0074 162.79 93.2418 162.825 91.1704C162.847 89.9142 162.299 88.7155 161.336 87.909C159.747 86.5792 159.415 84.2667 160.564 82.5432C161.262 81.4979 161.449 80.1936 161.075 78.9943C160.457 77.0168 161.428 74.8916 163.327 74.0632C164.478 73.5607 165.341 72.5649 165.675 71.3535C166.224 69.3562 168.19 68.0931 170.235 68.4227C171.475 68.6226 172.74 68.2514 173.675 67.4126Z" stroke="#095DD6" stroke-width="0.101289"/>
</g>
<g style="mix-blend-mode:color-burn">
<path d="M168.645 69.2041C169.64 67.387 171.843 66.6104 173.757 67.4021C174.918 67.8822 176.234 67.8121 177.338 67.2112C179.157 66.2205 181.431 66.7584 182.613 68.4594C183.33 69.4911 184.475 70.1434 185.728 70.2345C187.794 70.3847 189.416 72.0663 189.491 74.1366C189.537 75.3922 190.147 76.56 191.152 77.3141C192.809 78.5575 193.264 80.849 192.208 82.6312C191.568 83.7121 191.45 85.0246 191.888 86.2023C192.609 88.1441 191.753 90.3179 189.901 91.2463C188.778 91.8093 187.97 92.8497 187.701 94.0771C187.258 96.1009 185.363 97.4668 183.303 97.2466C182.054 97.113 180.811 97.551 179.922 98.4384C178.455 99.9016 176.122 100.026 174.508 98.727C173.53 97.9392 172.247 97.6358 171.019 97.9014C168.994 98.3395 166.965 97.1828 166.309 95.2176C165.912 94.0257 164.997 93.0772 163.82 92.6367C161.88 91.9105 160.798 89.8401 161.309 87.8325C161.619 86.6149 161.362 85.3225 160.611 84.3158C159.371 82.6559 159.58 80.329 161.095 78.9165C162.014 78.0598 162.497 76.8338 162.409 75.5804C162.264 73.5139 163.697 71.6693 165.736 71.3003C166.972 71.0766 168.041 70.3061 168.645 69.2041Z" stroke="#095DD6" stroke-width="0.101289"/>
</g>
<g style="mix-blend-mode:color-burn">
<path d="M174.686 73.2376C175.653 72.3709 177.117 72.3709 178.083 73.2376C178.669 73.7632 179.462 73.9958 180.239 73.8706C181.521 73.664 182.752 74.4555 183.097 75.7072C183.306 76.4663 183.847 77.0903 184.568 77.4052C185.758 77.9244 186.366 79.2561 185.979 80.4953C185.745 81.2469 185.862 82.0642 186.299 82.7192C187.02 83.7993 186.811 85.2484 185.816 86.0817C185.212 86.5872 184.869 87.3383 184.882 88.1255C184.904 89.4235 183.946 90.53 182.658 90.6929C181.877 90.7917 181.182 91.2381 180.768 91.9076C180.084 93.0115 178.68 93.4239 177.508 92.8646C176.798 92.5255 175.972 92.5255 175.261 92.8646C174.09 93.4239 172.685 93.0115 172.002 91.9076C171.588 91.2381 170.893 90.7917 170.112 90.6929C168.824 90.53 167.865 89.4235 167.887 88.1255C167.901 87.3383 167.557 86.5872 166.954 86.0817C165.958 85.2484 165.75 83.7993 166.47 82.7192C166.907 82.0642 167.025 81.2469 166.79 80.4953C166.403 79.2561 167.011 77.9244 168.201 77.4052C168.923 77.0903 169.464 76.4663 169.673 75.7072C170.017 74.4555 171.249 73.664 172.53 73.8706C173.308 73.9958 174.1 73.7632 174.686 73.2376Z" stroke="#095DD6" stroke-width="0.0634741"/>
</g>
<g style="mix-blend-mode:color-burn">
<path d="M177.534 73.1572C178.707 72.6013 180.111 73.0178 180.791 74.1236C181.203 74.7943 181.897 75.2427 182.677 75.3437C183.965 75.5103 184.92 76.6195 184.895 77.9174C184.879 78.7046 185.22 79.4567 185.822 79.9639C186.815 80.8 187.019 82.2498 186.296 83.3277C185.857 83.9815 185.737 84.7985 185.97 85.5507C186.353 86.7911 185.741 88.121 184.55 88.6368C183.827 88.9496 183.285 89.5721 183.074 90.3306C182.726 91.5813 181.492 92.3692 180.211 92.159C179.434 92.0315 178.641 92.2619 178.053 92.7859C177.084 93.6498 175.62 93.6456 174.656 92.7762C174.071 92.2488 173.28 92.0139 172.502 92.137C171.22 92.3399 169.99 91.5448 169.649 90.2922C169.443 89.5325 168.904 88.9069 168.183 88.59C166.995 88.0674 166.39 86.734 166.781 85.4959C167.017 84.745 166.902 83.9273 166.467 83.271C165.75 82.1889 165.962 80.7404 166.96 79.9099C167.565 79.4062 167.911 78.6561 167.899 77.8688C167.881 76.5708 168.843 75.4671 170.131 75.3079C170.913 75.2113 171.609 74.7668 172.025 74.0985C172.711 72.9966 174.117 72.5882 175.287 73.1508C175.997 73.492 176.822 73.4944 177.534 73.1572Z" stroke="#095DD6" stroke-width="0.0634741"/>
</g>
<g style="mix-blend-mode:color-burn">
<path d="M175.588 78.436C176.041 78.0303 176.726 78.0303 177.178 78.436C177.453 78.682 177.824 78.7909 178.187 78.7323C178.787 78.6356 179.364 79.0061 179.525 79.592C179.623 79.9473 179.876 80.2394 180.214 80.3868C180.771 80.6298 181.055 81.2532 180.874 81.8332C180.765 82.185 180.82 82.5676 181.024 82.8742C181.361 83.3798 181.264 84.0581 180.798 84.4482C180.515 84.6847 180.355 85.0363 180.361 85.4048C180.371 86.0124 179.922 86.5303 179.32 86.6066C178.954 86.6528 178.629 86.8618 178.435 87.1752C178.115 87.6919 177.458 87.8849 176.909 87.6231C176.577 87.4644 176.19 87.4644 175.857 87.6231C175.309 87.8849 174.652 87.6919 174.332 87.1752C174.138 86.8618 173.813 86.6528 173.447 86.6066C172.844 86.5303 172.395 86.0124 172.406 85.4048C172.412 85.0363 172.251 84.6847 171.969 84.4482C171.503 84.0581 171.405 83.3798 171.742 82.8742C171.947 82.5676 172.002 82.185 171.892 81.8332C171.711 81.2532 171.996 80.6298 172.553 80.3868C172.89 80.2394 173.144 79.9473 173.241 79.592C173.403 79.0061 173.979 78.6356 174.579 78.7323C174.943 78.7909 175.314 78.682 175.588 78.436Z" stroke="#095DD6" stroke-width="0.0297113"/>
</g>
<g style="mix-blend-mode:color-burn">
<path d="M174.446 78.791C174.78 78.2832 175.443 78.1083 175.984 78.385C176.312 78.5528 176.698 78.5634 177.035 78.4138C177.59 78.1672 178.242 78.3782 178.548 78.9035C178.733 79.2221 179.052 79.4399 179.417 79.4961C180.017 79.5889 180.451 80.1189 180.424 80.726C180.408 81.0941 180.559 81.45 180.835 81.6942C181.29 82.097 181.369 82.7777 181.018 83.2738C180.805 83.5747 180.74 83.9556 180.84 84.3103C181.005 84.8951 180.703 85.5104 180.14 85.7381C179.798 85.8761 179.537 86.1612 179.43 86.5137C179.252 87.0949 178.666 87.4495 178.069 87.3364C177.707 87.2678 177.333 87.3665 177.052 87.6049C176.589 87.998 175.904 87.9792 175.462 87.5613C175.195 87.3078 174.827 87.1888 174.462 87.2374C173.86 87.3176 173.293 86.9315 173.148 86.3414C173.06 85.9835 172.815 85.6846 172.482 85.528C171.932 85.2698 171.664 84.6389 171.861 84.064C171.98 83.7153 171.936 83.3314 171.74 83.0193C171.417 82.5047 171.533 81.8293 172.009 81.4521C172.298 81.2234 172.468 80.8763 172.472 80.5078C172.479 79.9002 172.941 79.3948 173.546 79.3351C173.913 79.2989 174.244 79.0989 174.446 78.791Z" stroke="#095DD6" stroke-width="0.0297113"/>
</g>
</g>
</g>
<defs>
<clipPath id="clip0_0_17">
<rect width="353" height="174" rx="8" fill="white"/>
</clipPath>
</defs>
</svg>
