<svg width="32" height="33" viewBox="0 0 32 33" fill="none" xmlns="http://www.w3.org/2000/svg">
<circle cx="16" cy="16.5" r="16" fill="#FFF8E0"/>
<path fill-rule="evenodd" clip-rule="evenodd" d="M24.3346 16.5052C24.3346 21.1076 20.6037 24.8385 16.0013 24.8385C11.3989 24.8385 7.66797 21.1076 7.66797 16.5052C7.66797 11.9028 11.3989 8.17188 16.0013 8.17188C20.6037 8.17188 24.3346 11.9028 24.3346 16.5052ZM16.0005 12.5469C16.3457 12.5469 16.6255 12.8267 16.6255 13.1719V17.3385C16.6255 17.6837 16.3457 17.9635 16.0005 17.9635C15.6553 17.9635 15.3755 17.6837 15.3755 17.3385V13.1719C15.3755 12.8267 15.6553 12.5469 16.0005 12.5469ZM16.0013 20.6686C16.4615 20.6686 16.8346 20.2955 16.8346 19.8353C16.8346 19.375 16.4615 19.002 16.0013 19.002C15.5411 19.002 15.168 19.375 15.168 19.8353C15.168 20.2955 15.5411 20.6686 16.0013 20.6686Z" fill="#FFB92D"/>
</svg>
