<svg width="20" height="20" viewBox="0 0 20 20" fill="none" xmlns="http://www.w3.org/2000/svg">
<g id="Bell">
<path id="Union" fill-rule="evenodd" clip-rule="evenodd" d="M9.99979 1.875C6.82815 1.875 4.15284 4.23671 3.75944 7.38386L2.93534 13.9767C2.77062 15.2944 3.79812 16.4583 5.12612 16.4583H6.26029L6.30391 16.5565C6.95305 18.017 8.40146 18.9583 9.99979 18.9583C11.5981 18.9583 13.0465 18.017 13.6957 16.5565L13.7393 16.4583H14.8735C16.2015 16.4583 17.229 15.2944 17.0642 13.9767L16.2401 7.38387C15.8467 4.23671 13.1714 1.875 9.99979 1.875ZM13.3474 15.2083C13.3381 15.2081 13.3288 15.2081 13.3195 15.2083H6.68004C6.67077 15.2081 6.66149 15.2081 6.65219 15.2083H5.12612C4.54999 15.2083 4.10423 14.7034 4.17569 14.1317L4.99979 7.53891C5.31499 5.01729 7.45855 3.125 9.99979 3.125C12.541 3.125 14.6846 5.01729 14.9998 7.53891L15.8239 14.1317C15.8953 14.7034 15.4496 15.2083 14.8735 15.2083H13.3474ZM7.67079 16.4583H12.3288C11.817 17.2304 10.9464 17.7083 9.99979 17.7083C9.05315 17.7083 8.18262 17.2304 7.67079 16.4583Z" fill="#021531"/>
</g>
</svg>
