<svg width="65" height="64" viewBox="0 0 65 64" fill="none" xmlns="http://www.w3.org/2000/svg">
<path d="M22.2866 12.4598C23.6405 10.0975 26.5559 9.13329 29.0513 10.2226C30.7936 10.9832 32.7863 10.9158 34.4732 10.0393C36.8894 8.78393 39.8632 9.54899 41.3736 11.8145C42.4281 13.3963 44.1409 14.4169 46.0339 14.5916C48.7452 14.8418 50.8333 17.0932 50.8791 19.8156C50.9111 21.7164 51.8001 23.501 53.2982 24.6714C55.4438 26.3477 55.9833 29.3707 54.5499 31.6857C53.5491 33.302 53.3322 35.2839 53.9597 37.0785C54.8585 39.6487 53.678 42.4834 51.2206 43.656C49.5048 44.4746 48.2508 46.0247 47.8085 47.8736C47.175 50.5217 44.6494 52.2682 41.9481 51.926C40.0621 51.6871 38.1692 52.3132 36.7975 53.6294C34.8329 55.5147 31.764 55.6184 29.6765 53.8702C28.219 52.6496 26.2881 52.1528 24.4226 52.5185C21.7506 53.0424 19.1128 51.4705 18.3019 48.8712C17.7357 47.0564 16.3799 45.5946 14.6127 44.8936C12.0817 43.8897 10.7125 41.1412 11.4356 38.5162C11.9404 36.6834 11.5902 34.7206 10.4825 33.1755C8.89606 30.9626 9.23011 27.9102 11.2576 26.0928C12.6732 24.8239 13.4397 22.9833 13.3432 21.0847C13.205 18.3654 15.1363 15.9781 17.8245 15.5453C19.7014 15.2432 21.3413 14.1092 22.2866 12.4598Z" fill="#E4EFFF" stroke="#B3D2FF" stroke-width="0.96"/>
<path fill-rule="evenodd" clip-rule="evenodd" d="M30.8532 23.875L30.9 23.875H33.1L33.1469 23.875C34.6156 23.875 35.7815 23.875 36.6946 23.9977C37.6353 24.1242 38.4006 24.3912 39.0047 24.9953C39.6088 25.5994 39.8758 26.3647 40.0023 27.3055C40.125 28.2185 40.125 29.3844 40.125 30.8531V30.9V33.8096L40.125 33.9096C40.1252 34.8298 40.1254 35.429 39.9478 35.992C39.8809 36.204 39.7957 36.4096 39.6931 36.6068C39.4206 37.1305 38.9968 37.5541 38.346 38.2046L38.346 38.2046L38.2753 38.2753L38.2046 38.346L38.2046 38.346C37.5541 38.9968 37.1305 39.4206 36.6068 39.6931C36.4096 39.7957 36.204 39.8809 35.992 39.9478C35.429 40.1254 34.8298 40.1252 33.9096 40.125L33.8096 40.125H30.9H30.8531C29.3844 40.125 28.2185 40.125 27.3055 40.0023C26.3647 39.8758 25.5994 39.6088 24.9953 39.0047C24.3912 38.4006 24.1242 37.6353 23.9977 36.6946C23.875 35.7815 23.875 34.6156 23.875 33.1469L23.875 33.1V30.9L23.875 30.8532C23.875 29.3844 23.875 28.2185 23.9977 27.3055C24.1242 26.3647 24.3912 25.5994 24.9953 24.9953C25.5994 24.3912 26.3647 24.1242 27.3055 23.9977C28.2185 23.875 29.3844 23.875 30.8532 23.875ZM27.472 25.2366C26.6699 25.3444 26.2123 25.5461 25.8792 25.8792C25.5461 26.2123 25.3444 26.6699 25.2366 27.472C25.1263 28.2921 25.125 29.3738 25.125 30.9V33.1C25.125 34.6262 25.1263 35.7079 25.2366 36.528C25.3444 37.3301 25.5461 37.7877 25.8792 38.1208C26.2123 38.4539 26.6699 38.6556 27.472 38.7634C28.2921 38.8737 29.3738 38.875 30.9 38.875H33.8096C34.1823 38.875 34.4726 38.8742 34.7078 38.8681V38.5312L34.7078 38.4882C34.7078 37.7706 34.7078 37.1698 34.772 36.6923C34.8399 36.1873 34.9897 35.7277 35.3595 35.3579C35.7293 34.9881 36.1889 34.8383 36.6939 34.7704C37.1714 34.7062 37.7722 34.7062 38.4897 34.7062H38.4898L38.5328 34.7062H38.8682C38.8742 34.4713 38.875 34.1815 38.875 33.8096V30.9C38.875 29.3738 38.8737 28.2921 38.7634 27.472C38.6556 26.6699 38.4539 26.2123 38.1208 25.8792C37.7877 25.5461 37.3301 25.3444 36.528 25.2366C35.7079 25.1263 34.6262 25.125 33.1 25.125H30.9C29.3738 25.125 28.2921 25.1263 27.472 25.2366ZM38.6211 35.9562H38.5328C37.7609 35.9562 37.2448 35.9576 36.8605 36.0092C36.4941 36.0585 36.3422 36.143 36.2434 36.2418C36.1445 36.3406 36.0601 36.4925 36.0108 36.8589C35.9591 37.2432 35.9578 37.7593 35.9578 38.5312V38.6203C35.982 38.6087 36.006 38.5967 36.0298 38.5843C36.3617 38.4116 36.6452 38.1376 37.3914 37.3914C38.1376 36.6452 38.4116 36.3617 38.5843 36.0298C38.5969 36.0055 38.6092 35.9809 38.6211 35.9562ZM27.2078 27.8313C27.2078 27.4861 27.4876 27.2063 27.8328 27.2063H34.4995C34.8447 27.2063 35.1245 27.4861 35.1245 27.8313C35.1245 28.1764 34.8447 28.4563 34.4995 28.4563H27.8328C27.4876 28.4563 27.2078 28.1764 27.2078 27.8313ZM27.8328 30.5437C27.4876 30.5437 27.2078 30.8236 27.2078 31.1687C27.2078 31.5139 27.4876 31.7937 27.8328 31.7937H32.8328C33.178 31.7937 33.4578 31.5139 33.4578 31.1687C33.4578 30.8236 33.178 30.5437 32.8328 30.5437H27.8328ZM27.2078 34.5C27.2078 34.1548 27.4876 33.875 27.8328 33.875H29.4995C29.8447 33.875 30.1245 34.1548 30.1245 34.5C30.1245 34.8452 29.8447 35.125 29.4995 35.125H27.8328C27.4876 35.125 27.2078 34.8452 27.2078 34.5Z" fill="#095DD6"/>
<path d="M5.56992 21.4371C6.03921 21.2844 6.42938 20.9529 6.65582 20.5144C6.88225 20.0759 6.92671 19.5658 6.77953 19.0947C6.61881 18.612 6.27307 18.2129 5.81828 17.9849C5.36349 17.7569 4.83682 17.7187 4.3539 17.8787C3.88561 18.0328 3.49652 18.3646 3.27031 18.8027C3.0441 19.2407 2.99885 19.7501 3.14429 20.2211C3.30501 20.7038 3.65072 21.103 4.10551 21.331C4.56029 21.559 5.087 21.5972 5.56992 21.4371Z" fill="#E4EFFF"/>
<path d="M9.6917 15.2909C9.93187 15.2106 10.1428 15.0609 10.2979 14.8606C10.4529 14.6604 10.5451 14.4187 10.5628 14.1661C10.5804 13.9135 10.5227 13.6613 10.397 13.4414C10.2713 13.2216 10.0832 13.044 9.8565 12.9311C9.62982 12.8182 9.37473 12.7751 9.12353 12.8072C8.87234 12.8393 8.63632 12.9453 8.44533 13.1116C8.25434 13.2779 8.11697 13.497 8.0506 13.7414C7.98423 13.9858 7.99184 14.2444 8.07248 14.4845C8.12055 14.6473 8.20168 14.7984 8.31076 14.9285C8.41984 15.0585 8.55453 15.1647 8.70646 15.2403C8.8584 15.316 9.02429 15.3595 9.19381 15.3682C9.36332 15.3769 9.53281 15.3506 9.6917 15.2909Z" fill="#E4EFFF"/>
<path d="M58.9026 41.5896C59.2662 41.6986 59.6483 41.7318 60.0252 41.687C60.4021 41.6422 60.7658 41.5205 61.0937 41.3294C61.4216 41.1383 61.7069 40.8818 61.9316 40.5759C62.1563 40.27 62.3158 39.9212 62.4001 39.5512C62.5774 38.8175 62.4635 38.0437 62.0824 37.3922C61.7013 36.7407 61.0827 36.2622 60.3563 36.0571C59.9931 35.9486 59.6116 35.9159 59.2353 35.961C58.859 36.0062 58.4959 36.1282 58.1687 36.3195C57.8416 36.5109 57.5573 36.7674 57.3334 37.0733C57.1096 37.3792 56.9511 37.7278 56.8676 38.0975C56.6872 38.8299 56.7987 39.6037 57.1784 40.2554C57.5582 40.9071 58.1765 41.3855 58.9026 41.5896Z" fill="#E4EFFF"/>
<path d="M56.4841 48.3143C56.7138 48.3773 56.957 48.3708 57.1829 48.2954C57.4089 48.2201 57.6074 48.0793 57.7533 47.8911C57.8992 47.7028 57.986 47.4755 58.0026 47.2378C58.0192 47.0002 57.9649 46.7631 57.8466 46.5564C57.7283 46.3496 57.5513 46.1827 57.338 46.0766C57.1247 45.9706 56.8848 45.9302 56.6486 45.9607C56.4123 45.9911 56.1904 46.091 56.011 46.2476C55.8316 46.4043 55.7026 46.6106 55.6406 46.8406C55.5845 46.9924 55.5623 47.1548 55.5757 47.3161C55.5891 47.4775 55.6378 47.6339 55.7182 47.7744C55.7986 47.9149 55.9089 48.0361 56.0412 48.1294C56.1735 48.2227 56.3247 48.2858 56.4841 48.3143Z" fill="#E4EFFF"/>
</svg>
