<svg width="17" height="16" viewBox="0 0 17 16" fill="none" xmlns="http://www.w3.org/2000/svg">
<g id="Copy">
<path id="Union" fill-rule="evenodd" clip-rule="evenodd" d="M6.4987 0.835938H6.4666H6.46659C5.4765 0.835929 4.68934 0.835923 4.06557 0.908974C3.42423 0.984082 2.89149 1.14219 2.44407 1.5045C2.28116 1.63643 2.13252 1.78506 2.00059 1.94798C1.63828 2.3954 1.48018 2.92814 1.40507 3.56947C1.33202 4.19324 1.33202 4.98041 1.33203 5.9705V5.97051V6.0026V6.0347V6.03471C1.33202 7.0248 1.33202 7.81196 1.40507 8.43574C1.48018 9.07707 1.63828 9.60981 2.00059 10.0572C2.13252 10.2201 2.28116 10.3688 2.44407 10.5007C2.89149 10.863 3.42423 11.0211 4.06557 11.0962C4.42972 11.1389 4.84955 11.1566 5.33294 11.164C5.33519 11.4029 5.34288 11.585 5.36897 11.7497C5.57228 13.0334 6.57905 14.0401 7.86273 14.2434C8.09653 14.2805 8.36544 14.2804 8.78219 14.2804L8.83203 14.2804H10.4987H10.5308C11.5209 14.2804 12.3081 14.2804 12.9318 14.2073C13.5732 14.1322 14.1059 13.9741 14.5533 13.6118C14.7162 13.4799 14.8649 13.3313 14.9968 13.1683C15.3591 12.7209 15.5172 12.1882 15.5923 11.5468C15.6654 10.9231 15.6654 10.1359 15.6654 9.14581V9.11372V8.33594V8.31572C15.6654 7.68514 15.6654 7.18363 15.6347 6.77805C15.6032 6.36294 15.5375 6.00781 15.3843 5.67919C15.0862 5.03997 14.5724 4.5262 13.9332 4.22812C13.6046 4.07489 13.2495 4.00919 12.8344 3.97776C12.5023 3.95261 12.1058 3.94805 11.6269 3.94723C11.6177 3.8151 11.6064 3.68927 11.5923 3.56947C11.5172 2.92814 11.3591 2.3954 10.9968 1.94798C10.8649 1.78506 10.7162 1.63643 10.5533 1.5045C10.1059 1.14219 9.57317 0.984082 8.93183 0.908974C8.30806 0.835923 7.52089 0.835929 6.53081 0.835938H6.5308H6.4987ZM11.6616 4.94734C11.6654 5.26164 11.6654 5.60202 11.6654 5.97051V6.0026V6.0347C11.6654 7.0248 11.6654 7.81196 11.5923 8.43574C11.5172 9.07707 11.3591 9.60981 10.9968 10.0572C10.8649 10.2201 10.7162 10.3688 10.5533 10.5007C10.1059 10.863 9.57317 11.0211 8.93183 11.0962C8.30806 11.1693 7.52089 11.1693 6.53079 11.1693H6.4987H6.4666C6.42173 11.1693 6.37728 11.1693 6.33324 11.1693C6.33538 11.3806 6.34117 11.4955 6.35665 11.5932C6.4922 12.449 7.16338 13.1202 8.01916 13.2558C8.16483 13.2788 8.34842 13.2804 8.83203 13.2804H10.4987C11.5281 13.2804 12.2567 13.2796 12.8155 13.2141C13.3635 13.15 13.6834 13.0295 13.924 12.8347C14.0326 12.7467 14.1317 12.6476 14.2197 12.539C14.4145 12.2984 14.5349 11.9785 14.5991 11.4305C14.6646 10.8717 14.6654 10.1432 14.6654 9.11372V8.33594C14.6654 7.68061 14.665 7.21694 14.6375 6.85356C14.6104 6.49539 14.559 6.27551 14.478 6.10181C14.2793 5.67566 13.9368 5.33315 13.5106 5.13443C13.3369 5.05344 13.117 5.00202 12.7589 4.9749C12.4711 4.95311 12.1205 4.94837 11.6616 4.94734ZM3.07339 2.28165C3.31398 2.08683 3.6339 1.96636 4.18188 1.90219C4.74071 1.83674 5.46925 1.83594 6.4987 1.83594C7.52814 1.83594 8.25669 1.83674 8.81551 1.90219C9.3635 1.96636 9.68342 2.08683 9.924 2.28165C10.0326 2.3696 10.1317 2.46869 10.2197 2.5773C10.4145 2.81788 10.5349 3.13781 10.5991 3.68579C10.6646 4.24461 10.6654 4.97316 10.6654 6.0026C10.6654 7.03205 10.6646 7.7606 10.5991 8.31942C10.5349 8.8674 10.4145 9.18733 10.2197 9.42791C10.1317 9.53652 10.0326 9.63561 9.924 9.72356C9.68342 9.91838 9.3635 10.0388 8.81551 10.103C8.25669 10.1685 7.52814 10.1693 6.4987 10.1693C5.46925 10.1693 4.74071 10.1685 4.18188 10.103C3.6339 10.0388 3.31398 9.91838 3.07339 9.72356C2.96478 9.63561 2.86569 9.53652 2.77774 9.42791C2.58292 9.18733 2.46246 8.8674 2.39828 8.31942C2.33283 7.7606 2.33203 7.03205 2.33203 6.0026C2.33203 4.97316 2.33283 4.24461 2.39828 3.68579C2.46246 3.13781 2.58292 2.81788 2.77774 2.5773C2.86569 2.46869 2.96478 2.3696 3.07339 2.28165Z" fill="#C4DBFD"/>
</g>
</svg>
