<svg width="16" height="16" viewBox="0 0 16 16" fill="none" xmlns="http://www.w3.org/2000/svg">
<g id="Eye - Slash">
<path id="Icon" fill-rule="evenodd" clip-rule="evenodd" d="M2.35225 1.64645C2.15699 1.45118 1.84041 1.45118 1.64514 1.64645C1.44988 1.84171 1.44988 2.15829 1.64514 2.35355L3.42356 4.13197C2.6061 4.67904 1.99319 5.33605 1.57012 5.97579C1.09478 6.69457 0.832031 7.4342 0.832031 8C0.832031 8.44106 0.991517 8.98028 1.27399 9.52263C1.56113 10.0739 1.9923 10.6617 2.57622 11.2007C3.75005 12.2843 5.53715 13.1667 7.9987 13.1667C9.4518 13.1667 10.6727 12.8591 11.6726 12.381L13.6451 14.3536C13.8404 14.5488 14.157 14.5488 14.3523 14.3536C14.5475 14.1583 14.5475 13.8417 14.3523 13.6464L2.35225 1.64645ZM10.9153 11.6237L9.37734 10.0858C8.98215 10.3474 8.50787 10.5 7.9987 10.5C6.61799 10.5 5.4987 9.38071 5.4987 8C5.4987 7.49082 5.65133 7.01654 5.91295 6.62135L4.14676 4.85517C3.35926 5.34585 2.78496 5.95168 2.40422 6.52739C1.99084 7.15248 1.83203 7.7001 1.83203 8C1.83203 8.22561 1.92255 8.60305 2.1609 9.0607C2.3946 9.50939 2.75509 10.0049 3.2545 10.4659C4.24734 11.3824 5.79358 12.1667 7.9987 12.1667C9.14614 12.1667 10.1131 11.9543 10.9153 11.6237ZM6.64479 7.3532C6.55106 7.54895 6.4987 7.76814 6.4987 8C6.4987 8.82843 7.17027 9.5 7.9987 9.5C8.23055 9.5 8.44975 9.44763 8.6455 9.35391L6.64479 7.3532ZM7.9987 3.83333C7.30497 3.83333 6.678 3.91095 6.11424 4.04485C5.84557 4.10866 5.57604 3.94258 5.51223 3.67392C5.44842 3.40525 5.61449 3.13572 5.88316 3.07191C6.52518 2.91943 7.22983 2.83333 7.9987 2.83333C10.4602 2.83333 12.2473 3.71573 13.4212 4.79926C14.0051 5.33827 14.4363 5.92606 14.7234 6.47737C15.0059 7.01972 15.1654 7.55894 15.1654 8C15.1654 8.80717 14.6291 10.0034 13.6088 11.0207C13.4133 11.2157 13.0967 11.2152 12.9017 11.0197C12.7067 10.8242 12.7072 10.5076 12.9027 10.3126C13.8087 9.40924 14.1654 8.45272 14.1654 8C14.1654 7.77439 14.0748 7.39695 13.8365 6.9393C13.6028 6.49061 13.2423 5.99506 12.7429 5.53407C11.7501 4.6176 10.2038 3.83333 7.9987 3.83333Z" fill="#B0CFFC"/>
</g>
</svg>
