<svg width="16" height="16" viewBox="0 0 16 16" fill="none" xmlns="http://www.w3.org/2000/svg">
<g id="Eye">
<path id="Icon" fill-rule="evenodd" clip-rule="evenodd" d="M1.83203 7.99479C1.83203 7.76919 1.92255 7.39174 2.1609 6.93409C2.3946 6.4854 2.75509 5.98986 3.2545 5.52886C4.24734 4.61239 5.79358 3.82812 7.9987 3.82812C10.2038 3.82812 11.7501 4.61239 12.7429 5.52886C13.2423 5.98986 13.6028 6.4854 13.8365 6.93409C14.0748 7.39174 14.1654 7.76919 14.1654 7.99479C14.1654 8.2204 14.0748 8.59784 13.8365 9.05549C13.6028 9.50418 13.2423 9.99973 12.7429 10.4607C11.7501 11.3772 10.2038 12.1615 7.9987 12.1615C5.79358 12.1615 4.24734 11.3772 3.2545 10.4607C2.75509 9.99973 2.3946 9.50418 2.1609 9.05549C1.92255 8.59784 1.83203 8.2204 1.83203 7.99479ZM7.9987 2.82812C5.53715 2.82812 3.75005 3.71052 2.57622 4.79406C1.9923 5.33306 1.56113 5.92085 1.27399 6.47216C0.991517 7.01451 0.832031 7.55373 0.832031 7.99479C0.832031 8.43585 0.991517 8.97508 1.27399 9.51743C1.56113 10.0687 1.9923 10.6565 2.57622 11.1955C3.75005 12.2791 5.53715 13.1615 7.9987 13.1615C10.4602 13.1615 12.2473 12.2791 13.4212 11.1955C14.0051 10.6565 14.4363 10.0687 14.7234 9.51743C15.0059 8.97508 15.1654 8.43585 15.1654 7.99479C15.1654 7.55373 15.0059 7.01451 14.7234 6.47216C14.4363 5.92085 14.0051 5.33306 13.4212 4.79406C12.2473 3.71052 10.4602 2.82812 7.9987 2.82812ZM6.4987 7.99479C6.4987 7.16636 7.17027 6.49479 7.9987 6.49479C8.82712 6.49479 9.4987 7.16636 9.4987 7.99479C9.4987 8.82322 8.82712 9.49479 7.9987 9.49479C7.17027 9.49479 6.4987 8.82322 6.4987 7.99479ZM7.9987 5.49479C6.61799 5.49479 5.4987 6.61408 5.4987 7.99479C5.4987 9.3755 6.61799 10.4948 7.9987 10.4948C9.37941 10.4948 10.4987 9.3755 10.4987 7.99479C10.4987 6.61408 9.37941 5.49479 7.9987 5.49479Z" fill="#B0CFFC"/>
</g>
</svg>
