<svg width="20" height="20" viewBox="0 0 20 20" fill="none" xmlns="http://www.w3.org/2000/svg">
<g id="Gas">
<path id="Union" fill-rule="evenodd" clip-rule="evenodd" d="M8.95508 1L8.92729 1C8.48366 0.999989 8.10927 0.999979 7.80371 1.02767C7.4832 1.05672 7.1776 1.12014 6.89258 1.2847C6.56954 1.4712 6.30128 1.73946 6.11478 2.0625C5.95022 2.34752 5.8868 2.65312 5.85775 2.97363C5.83746 3.19752 5.83204 3.45835 5.8306 3.7563C4.71088 4.16207 3.90388 5.21702 3.86293 6.46785C3.86132 6.51691 3.86132 6.57221 3.86133 6.65223V6.66403V11.0781V11.1235C3.86131 12.1986 3.8613 13.0686 3.9534 13.7537C4.04921 14.4663 4.25489 15.0716 4.73635 15.5531C5.14664 15.9634 5.64685 16.1734 6.2268 16.2858C6.22865 16.4037 6.23205 16.5118 6.23833 16.6104C6.25267 16.8354 6.28377 17.0526 6.36575 17.2662C6.58158 17.8284 7.02584 18.2727 7.58808 18.4885C7.80165 18.5705 8.01888 18.6016 8.24392 18.6159C8.45938 18.6297 8.72074 18.6297 9.03033 18.6297H9.04961H10.9496H10.9689C11.2785 18.6297 11.5398 18.6297 11.7553 18.6159C11.9803 18.6016 12.1976 18.5705 12.4111 18.4885C12.9734 18.2727 13.4176 17.8284 13.6335 17.2662C13.7155 17.0526 13.7466 16.8354 13.7609 16.6104C13.7672 16.5117 13.7706 16.4035 13.7724 16.2855C14.3517 16.173 14.8514 15.963 15.2613 15.5531C15.7428 15.0716 15.9484 14.4663 16.0443 13.7537C16.1364 13.0686 16.1363 12.1986 16.1363 11.1236V11.1235V11.0781V6.66403V6.65228V6.65225V6.65221V6.65218C16.1363 6.57219 16.1363 6.5169 16.1347 6.46785C16.0938 5.21702 15.2868 4.16207 14.1671 3.7563C14.1656 3.45835 14.1602 3.19752 14.1399 2.97363C14.1109 2.65312 14.0474 2.34752 13.8829 2.0625C13.6964 1.73946 13.4281 1.4712 13.1051 1.2847C12.8201 1.12014 12.5145 1.05672 12.1939 1.02767C11.8884 0.999979 11.514 0.999989 11.0704 1L11.0426 1H9.99883H8.95508ZM12.9154 3.57809C12.9129 3.38076 12.9073 3.22192 12.895 3.08646C12.8738 2.85265 12.8368 2.75056 12.8004 2.6875C12.7236 2.55448 12.6131 2.44403 12.4801 2.36723C12.417 2.33082 12.3149 2.29376 12.0811 2.27257C11.8387 2.2506 11.5214 2.25 11.0426 2.25H9.99883H8.95508C8.47627 2.25 8.15895 2.2506 7.91654 2.27257C7.68273 2.29376 7.58064 2.33082 7.51758 2.36723C7.38456 2.44403 7.2741 2.55448 7.19731 2.6875C7.1609 2.75056 7.12384 2.85265 7.10265 3.08646C7.09037 3.22192 7.08477 3.38076 7.08221 3.57809H12.9154ZM6.79198 4.82903C6.81782 4.82818 6.85092 4.82809 6.94727 4.82809H13.0504C13.1467 4.82809 13.1798 4.82818 13.2057 4.82903C14.1207 4.85898 14.8554 5.59376 14.8854 6.50875C14.8862 6.53458 14.8863 6.56769 14.8863 6.66403V11.0781C14.8863 12.2095 14.885 12.9951 14.8054 13.5871C14.7282 14.1612 14.5879 14.4587 14.3774 14.6692C14.1669 14.8797 13.8694 15.02 13.2954 15.0972C12.7033 15.1768 11.9177 15.1781 10.7863 15.1781H9.21133C8.07997 15.1781 7.29432 15.1768 6.7023 15.0972C6.12827 15.02 5.83073 14.8797 5.62023 14.6692C5.40973 14.4587 5.26943 14.1612 5.19225 13.5871C5.11266 12.9951 5.11133 12.2095 5.11133 11.0781V6.66403C5.11133 6.56769 5.11141 6.53459 5.11226 6.50875C5.14221 5.59376 5.87699 4.85898 6.79198 4.82903ZM7.48075 16.4297C7.48211 16.4654 7.48377 16.499 7.4858 16.5309C7.49637 16.6967 7.51508 16.7723 7.53273 16.8182C7.6216 17.0497 7.80453 17.2327 8.03604 17.3215C8.08201 17.3392 8.15756 17.3579 8.3234 17.3685C8.49437 17.3794 8.71564 17.3797 9.04961 17.3797H10.9496C11.2836 17.3797 11.5049 17.3794 11.6758 17.3685C11.8417 17.3579 11.9172 17.3392 11.9632 17.3215C12.1947 17.2327 12.3776 17.0497 12.4665 16.8182C12.4841 16.7723 12.5029 16.6967 12.5134 16.5309C12.5155 16.499 12.5171 16.4654 12.5185 16.4297H7.48075ZM10.7341 8.77031C10.4317 8.13902 9.56834 8.13902 9.26586 8.7703L8.66009 10.0345C8.16206 11.0739 8.88636 12.2968 10 12.2968C11.1136 12.2968 11.8379 11.0739 11.3399 10.0345L10.7341 8.77031Z" fill="#2D35FF"/>
</g>
</svg>
