<svg width="24" height="24" viewBox="0 0 24 24" fill="none" xmlns="http://www.w3.org/2000/svg">
<g id="Home">
<path id="Union" fill-rule="evenodd" clip-rule="evenodd" d="M5 11.6162C5 11.0769 4.29149 10.7689 3.91014 11.1502L2.53033 12.53C2.23744 12.8229 1.76256 12.8229 1.46967 12.53C1.17678 12.2371 1.17678 11.7623 1.46967 11.4694L8.64125 4.29779L8.67802 4.26102C8.67802 4.26102 8.67802 4.26102 8.67802 4.26102C8.67802 4.26102 8.67802 4.26102 8.67802 4.26102C9.31332 3.62568 9.84308 3.09589 10.3202 2.73186C10.8238 2.34762 11.3559 2.07812 12 2.07812C12.6441 2.07812 13.1762 2.34762 13.6798 2.73186C14.1569 3.09589 14.6867 3.62568 15.322 4.26103L15.322 4.26103L15.3588 4.29779L22.5303 11.4694C22.8232 11.7623 22.8232 12.2371 22.5303 12.53C22.2374 12.8229 21.7626 12.8229 21.4697 12.53L20.0899 11.1502C19.7085 10.7689 19 11.0769 19 11.6162V14.9998C19 17.8282 19 19.2424 18.1213 20.1211C17.2426 20.9998 15.8284 20.9998 13 20.9998H11C8.17157 20.9998 6.75736 20.9998 5.87868 20.1211C5 19.2424 5 17.8282 5 14.9998V11.6162Z" fill="#095DD6"/>
</g>
</svg>
