<svg width="20" height="20" viewBox="0 0 20 20" fill="none" xmlns="http://www.w3.org/2000/svg">
<g id="Petrol Pump / 24 / Outline">
<path id="Union" fill-rule="evenodd" clip-rule="evenodd" d="M10.1032 1H10.1377H10.1722H10.1722C11.249 0.999993 12.1048 0.999987 12.7888 1.06957C13.4906 1.14095 14.0804 1.29071 14.5975 1.6362C15.0097 1.91162 15.3636 2.26553 15.639 2.67772C15.9845 3.19479 16.1343 3.78467 16.2057 4.4864C16.2752 5.1704 16.2752 6.02623 16.2752 7.10299V7.10302V7.1375V14.5678C16.7151 14.9233 17.0368 15.4183 17.1756 15.9879C17.2506 16.2958 17.2505 16.6501 17.2503 17.1373L17.2502 17.2181L17.2503 17.2346V17.2346C17.2508 17.2928 17.2517 17.4144 17.2239 17.5284C17.1421 17.8641 16.88 18.1263 16.5442 18.2081C16.4303 18.2358 16.3086 18.2349 16.2505 18.2345H16.2505L16.2339 18.2344H4.01653L3.99999 18.2345C3.94187 18.2349 3.8202 18.2358 3.70622 18.2081C3.37048 18.1263 3.10835 17.8641 3.02653 17.5284C2.99875 17.4144 2.99969 17.2927 3.00014 17.2346L3.00023 17.2181L3.0002 17.1373C2.99999 16.6501 2.99983 16.2958 3.07486 15.9879C3.21629 15.4075 3.54755 14.9047 4.00023 14.5478V7.1375L4.00023 7.10301C4.00022 6.02624 4.00021 5.17041 4.0698 4.4864C4.14118 3.78467 4.29094 3.19479 4.63643 2.67772C4.91185 2.26553 5.26576 1.91162 5.67795 1.6362C6.19501 1.29071 6.78489 1.14095 7.48663 1.06957C8.17063 0.999987 9.02646 0.999993 10.1032 1H10.1032ZM15.0252 7.1375V14.0182C14.7683 13.9841 14.4721 13.9842 14.0973 13.9844H14.0973L14.0165 13.9844H6.23392L6.15319 13.9844H6.15318H6.15314C5.7904 13.9842 5.50132 13.9841 5.25023 14.015V7.1375C5.25023 6.01848 5.25098 5.22626 5.31338 4.61291C5.37471 4.01001 5.49039 3.64963 5.67577 3.37219C5.85999 3.09648 6.09671 2.85976 6.37241 2.67554C6.64985 2.49016 7.01023 2.37448 7.61314 2.31315C8.22648 2.25076 9.01871 2.25 10.1377 2.25C11.2567 2.25 12.049 2.25076 12.6623 2.31315C13.2652 2.37448 13.6256 2.49016 13.903 2.67554C14.1787 2.85976 14.4155 3.09648 14.5997 3.37219C14.7851 3.64963 14.9007 4.01001 14.9621 4.61291C15.0245 5.22626 15.0252 6.01848 15.0252 7.1375ZM6.23392 15.2344C5.63137 15.2344 5.44172 15.2389 5.29968 15.2735C4.80061 15.3951 4.41094 15.7848 4.28932 16.2838C4.25964 16.4056 4.25212 16.5624 4.25058 16.9844H15.9999C15.9983 16.5624 15.9908 16.4056 15.9611 16.2838C15.8395 15.7848 15.4498 15.3951 14.9508 15.2735C14.8087 15.2389 14.6191 15.2344 14.0165 15.2344H6.23392ZM9.12523 3.48438L9.08609 3.48437H9.08608C8.64829 3.48434 8.25898 3.4843 7.94468 3.52656C7.60306 3.57249 7.25811 3.6784 6.97618 3.96033C6.69425 4.24225 6.58834 4.5872 6.54241 4.92882C6.50016 5.24313 6.50019 5.63244 6.50023 6.07023V6.07024L6.50023 6.10938L6.50023 6.14851V6.14852C6.50019 6.58631 6.50016 6.97562 6.54241 7.28993C6.58834 7.63155 6.69425 7.9765 6.97618 8.25842C7.25811 8.54035 7.60306 8.64626 7.94468 8.69219C8.25898 8.73445 8.64829 8.73441 9.08608 8.73438H9.08609L9.12523 8.73438H11.1252L11.1644 8.73438H11.1644C11.6022 8.73441 11.9915 8.73445 12.3058 8.69219C12.6474 8.64626 12.9923 8.54035 13.2743 8.25842C13.5562 7.9765 13.6621 7.63155 13.708 7.28993C13.7503 6.97563 13.7503 6.58631 13.7502 6.14853V6.14852L13.7502 6.10938L13.7502 6.07023V6.07022C13.7503 5.63244 13.7503 5.24312 13.708 4.92882C13.6621 4.5872 13.5562 4.24225 13.2743 3.96033C12.9923 3.6784 12.6474 3.57249 12.3058 3.52656C11.9915 3.4843 11.6022 3.48434 11.1644 3.48437H11.1644L11.1252 3.48438H9.12523ZM7.86006 4.84421L7.86066 4.84361C7.87238 4.83183 7.91178 4.79223 8.11124 4.76541C8.33222 4.7357 8.63615 4.73438 9.12523 4.73438H11.1252C11.6143 4.73438 11.9182 4.7357 12.1392 4.76541C12.3387 4.79223 12.3781 4.83183 12.3898 4.84361L12.3904 4.84421L12.391 4.84481C12.4028 4.85653 12.4424 4.89593 12.4692 5.09538C12.4989 5.31637 12.5002 5.6203 12.5002 6.10938C12.5002 6.59845 12.4989 6.90238 12.4692 7.12337C12.4424 7.32282 12.4028 7.36222 12.391 7.37394L12.3904 7.37454L12.3898 7.37514C12.3781 7.38692 12.3387 7.42652 12.1392 7.45334C11.9182 7.48305 11.6143 7.48438 11.1252 7.48438H9.12523C8.63615 7.48438 8.33222 7.48305 8.11124 7.45334C7.91178 7.42652 7.87238 7.38692 7.86066 7.37514L7.86006 7.37454L7.85946 7.37394C7.84768 7.36222 7.80808 7.32282 7.78127 7.12337C7.75155 6.90238 7.75023 6.59845 7.75023 6.10938C7.75023 5.6203 7.75155 5.31637 7.78127 5.09538C7.80808 4.89593 7.84768 4.85653 7.85946 4.84481L7.86006 4.84421Z" fill="#AA8913"/>
</g>
</svg>
