<svg width="20" height="20" viewBox="0 0 20 20" fill="none" xmlns="http://www.w3.org/2000/svg">
<g id="Receipt">
<path id="Union" fill-rule="evenodd" clip-rule="evenodd" d="M15.4906 17.1039L15.4874 17.1017C15.4896 17.1033 15.4906 17.104 15.4906 17.1039ZM14.8087 17.3765L14.808 17.3803C14.808 17.3804 14.8083 17.3792 14.8087 17.3765ZM14.5153 16.1126L14.8188 16.426V10.0945V7.01834C14.8188 5.86958 14.8175 5.07088 14.7366 4.46881C14.658 3.88472 14.515 3.58013 14.2991 3.36422C14.0832 3.14832 13.7786 3.00531 13.1946 2.92678C12.5925 2.84584 11.7938 2.84451 10.645 2.84451H9.22268C8.07391 2.84451 7.27522 2.84584 6.67315 2.92678C6.08906 3.00531 5.78447 3.14832 5.56856 3.36422C5.35266 3.58013 5.20965 3.88472 5.13112 4.46881C5.05018 5.07088 5.04885 5.86958 5.04885 7.01834V16.426L5.35244 16.1126L5.37778 16.0865C5.6651 15.7898 5.92011 15.5265 6.15351 15.3391C6.40557 15.1367 6.69953 14.9658 7.07194 14.9413C7.14313 14.9366 7.21456 14.9366 7.28576 14.9413C7.65817 14.9658 7.95212 15.1367 8.20419 15.3391C8.43758 15.5265 8.69259 15.7898 8.97991 16.0865L9.00526 16.1126C9.32575 16.4435 9.52627 16.6488 9.69123 16.7813C9.84176 16.9022 9.89534 16.9056 9.90853 16.9064L9.90918 16.9065C9.92561 16.9075 9.94209 16.9075 9.95852 16.9065L9.95917 16.9064C9.97236 16.9056 10.0259 16.9022 10.1765 16.7813C10.3414 16.6488 10.5419 16.4435 10.8624 16.1126L10.8878 16.0865C11.1751 15.7898 11.4301 15.5265 11.6635 15.3391C11.9156 15.1367 12.2095 14.9658 12.5819 14.9413C12.6531 14.9366 12.7246 14.9366 12.7958 14.9413C13.1682 14.9658 13.4621 15.1367 13.7142 15.3391C13.9476 15.5265 14.2026 15.7898 14.4899 16.0865L14.5153 16.1126ZM15.5535 18.2403C15.1511 18.4032 14.8261 18.171 14.7162 18.0855C14.5922 17.9889 14.4557 17.8478 14.3305 17.7185L14.3076 17.6949L13.6174 16.9824C13.2969 16.6515 13.0964 16.4462 12.9315 16.3137C12.7809 16.1928 12.7274 16.1894 12.7142 16.1886L12.7135 16.1885C12.6971 16.1875 12.6806 16.1875 12.6642 16.1885L12.6635 16.1886C12.6503 16.1894 12.5968 16.1928 12.4462 16.3137C12.2813 16.4462 12.0808 16.6515 11.7603 16.9824L11.7349 17.0085C11.4476 17.3052 11.1926 17.5685 10.9592 17.7559C10.7071 17.9583 10.4132 18.1292 10.0408 18.1537C9.96956 18.1584 9.89813 18.1584 9.82694 18.1537C9.45453 18.1292 9.16057 17.9583 8.90851 17.7559C8.67511 17.5685 8.4201 17.3052 8.13278 17.0085L8.10744 16.9824C7.78695 16.6515 7.58643 16.4462 7.42147 16.3137C7.27094 16.1928 7.21736 16.1894 7.20417 16.1886L7.20352 16.1885C7.18709 16.1875 7.17061 16.1875 7.15418 16.1885L7.15353 16.1886C7.14034 16.1894 7.08676 16.1928 6.93623 16.3137C6.77127 16.4462 6.57075 16.6515 6.25026 16.9824L5.56006 17.6949L5.5372 17.7185L5.5372 17.7185C5.41202 17.8478 5.27553 17.9889 5.15147 18.0855C5.0416 18.171 4.71662 18.4032 4.3142 18.2403C3.91178 18.0773 3.83993 17.6844 3.82055 17.5465C3.79866 17.3908 3.79876 17.1946 3.79884 17.0146L3.79884 17.0146L3.79885 16.9817V7.01834V6.97282C3.79883 5.88041 3.79882 4.99734 3.89227 4.30225C3.98943 3.57955 4.19781 2.96721 4.68468 2.48034C5.17155 1.99347 5.78389 1.7851 6.50659 1.68793C7.20168 1.59448 8.08475 1.59449 9.17715 1.59451H9.22268H10.645H10.6905C11.783 1.59449 12.666 1.59448 13.3611 1.68793C14.0838 1.7851 14.6962 1.99347 15.183 2.48034C15.6699 2.96721 15.8783 3.57955 15.9754 4.30225C16.0689 4.99735 16.0689 5.88042 16.0688 6.97285V7.01834V10.0945V16.9817L16.0689 17.0145C16.0689 17.1946 16.069 17.3908 16.0471 17.5465C16.0278 17.6844 15.9559 18.0773 15.5535 18.2403ZM5.05971 17.3803L5.05898 17.3765C5.05941 17.3792 5.05968 17.3804 5.05971 17.3803ZM4.38026 17.1017L4.37707 17.1039C4.37705 17.104 4.3781 17.1033 4.38026 17.1017ZM7.62307 12.7976C7.27789 12.7976 6.99807 12.5178 6.99807 12.1726C6.99807 11.8275 7.27789 11.5476 7.62307 11.5476H10.8223C11.1675 11.5476 11.4473 11.8275 11.4473 12.1726C11.4473 12.5178 11.1675 12.7976 10.8223 12.7976H7.62307ZM9.39846 8.97732C9.39846 9.3225 9.67828 9.60232 10.0235 9.60232H12.4229C12.768 9.60232 13.0479 9.3225 13.0479 8.97732C13.0479 8.63214 12.768 8.35232 12.4229 8.35232H10.0235C9.67828 8.35232 9.39846 8.63215 9.39846 8.97732ZM10.0235 6.3992C9.67828 6.3992 9.39846 6.11938 9.39846 5.7742C9.39846 5.42902 9.67828 5.1492 10.0235 5.1492H12.4229C12.768 5.1492 13.0479 5.42902 13.0479 5.7742C13.0479 6.11938 12.768 6.3992 12.4229 6.3992H10.0235ZM8.42385 8.97439C8.42385 8.53267 8.06576 8.17459 7.62404 8.17459C7.18232 8.17459 6.82424 8.53267 6.82424 8.97439C6.82424 9.41611 7.18232 9.7742 7.62404 9.7742C8.06576 9.7742 8.42385 9.41611 8.42385 8.97439ZM7.62404 4.97928C8.06576 4.97928 8.42385 5.33736 8.42385 5.77908C8.42385 6.2208 8.06576 6.57889 7.62404 6.57889C7.18232 6.57889 6.82424 6.2208 6.82424 5.77908C6.82424 5.33736 7.18232 4.97928 7.62404 4.97928Z" fill="#095DD6"/>
</g>
</svg>
