<svg width="20" height="20" viewBox="0 0 20 20" fill="none" xmlns="http://www.w3.org/2000/svg">
<g id="Smartphone">
<path id="Union" fill-rule="evenodd" clip-rule="evenodd" d="M9.96434 1.5H9.99883H10.0333C11.1101 1.49999 11.9659 1.49999 12.6499 1.56957C13.3517 1.64095 13.9415 1.79071 14.4586 2.1362C14.8708 2.41162 15.2247 2.76553 15.5001 3.17772C15.8456 3.69479 15.9954 4.28467 16.0668 4.9864C16.1363 5.6704 16.1363 6.52623 16.1363 7.60299V7.60302V7.6375V12.3625V12.397V12.397C16.1363 13.4738 16.1363 14.3296 16.0668 15.0136C15.9954 15.7153 15.8456 16.3052 15.5001 16.8223C15.2247 17.2345 14.8708 17.5884 14.4586 17.8638C13.9415 18.2093 13.3517 18.359 12.6499 18.4304C11.9659 18.5 11.1101 18.5 10.0333 18.5H9.99883H9.96435C8.88757 18.5 8.03174 18.5 7.34773 18.4304C6.64599 18.359 6.05611 18.2093 5.53905 17.8638C5.12686 17.5884 4.77295 17.2345 4.49753 16.8223C4.15204 16.3052 4.00228 15.7153 3.9309 15.0136C3.86131 14.3296 3.86132 13.4738 3.86133 12.397V12.3625V7.6375V7.60301V7.603C3.86132 6.52624 3.86131 5.67041 3.9309 4.9864C4.00228 4.28467 4.15204 3.69479 4.49753 3.17772C4.77295 2.76553 5.12686 2.41162 5.53905 2.1362C6.05611 1.79071 6.64599 1.64095 7.34773 1.56957C8.03174 1.49999 8.88757 1.49999 9.96434 1.5ZM7.47424 2.81315C6.87134 2.87448 6.51096 2.99016 6.23351 3.17554C5.95781 3.35976 5.72109 3.59648 5.53687 3.87219C5.35149 4.14963 5.23581 4.51001 5.17448 5.11291C5.11208 5.72626 5.11133 6.51848 5.11133 7.6375V12.3625C5.11133 13.4815 5.11208 14.2737 5.17448 14.8871C5.23581 15.49 5.35149 15.8504 5.53687 16.1278C5.72109 16.4035 5.95781 16.6402 6.23351 16.8245C6.51096 17.0098 6.87134 17.1255 7.47424 17.1868C8.08758 17.2492 8.87981 17.25 9.99883 17.25C11.1178 17.25 11.9101 17.2492 12.5234 17.1868C13.1263 17.1255 13.4867 17.0098 13.7641 16.8245C14.0398 16.6402 14.2766 16.4035 14.4608 16.1278C14.6462 15.8504 14.7618 15.49 14.8232 14.8871C14.8856 14.2737 14.8863 13.4815 14.8863 12.3625V7.6375C14.8863 6.51848 14.8856 5.72626 14.8232 5.11291C14.7618 4.51001 14.6462 4.14963 14.4608 3.87219C14.2766 3.59648 14.0398 3.35976 13.7641 3.17554C13.4867 2.99016 13.1263 2.87448 12.5234 2.81315C11.9101 2.75076 11.1178 2.75 9.99883 2.75C8.87981 2.75 8.08758 2.75076 7.47424 2.81315ZM7.79883 15.5156C7.79883 15.1704 8.07865 14.8906 8.42383 14.8906H11.5738C11.919 14.8906 12.1988 15.1704 12.1988 15.5156C12.1988 15.8608 11.919 16.1406 11.5738 16.1406H8.42383C8.07865 16.1406 7.79883 15.8608 7.79883 15.5156ZM9.99844 5.27813C10.4334 5.27813 10.7859 4.92555 10.7859 4.49063C10.7859 4.0557 10.4334 3.70313 9.99844 3.70313C9.56351 3.70313 9.21094 4.0557 9.21094 4.49063C9.21094 4.92555 9.56351 5.27813 9.99844 5.27813Z" fill="#CB010B"/>
</g>
</svg>
